<svg width="22" height="26" viewBox="0 0 22 26" fill="none" xmlns="http://www.w3.org/2000/svg">
<path d="M20.1988 7V19C20.1988 23.8 18.9988 25 14.1988 25H6.99884C2.19884 25 0.99884 23.8 0.99884 19V7C0.99884 2.2 2.19884 1 6.99884 1H14.1988C18.9988 1 20.1988 2.2 20.1988 7Z" stroke="#1A2B88" stroke-width="1.8" stroke-linecap="round" stroke-linejoin="round"/>
<path d="M12.9989 5.19995H8.19885" stroke="#1A2B88" stroke-width="1.8" stroke-linecap="round" stroke-linejoin="round"/>
<path d="M10.5979 21.52C11.6252 21.52 12.4579 20.6873 12.4579 19.66C12.4579 18.6328 11.6252 17.8 10.5979 17.8C9.57067 17.8 8.73792 18.6328 8.73792 19.66C8.73792 20.6873 9.57067 21.52 10.5979 21.52Z" stroke="#1A2B88" stroke-width="1.8" stroke-linecap="round" stroke-linejoin="round"/>
</svg>
