<svg width="20" height="20" viewBox="0 0 20 20" fill="none" xmlns="http://www.w3.org/2000/svg">
<g id="akar-icons:google-fill">
<path id="Vector" d="M17.8796 8.46188C17.9821 9.01104 18.038 9.58521 18.038 10.1844C18.038 14.871 14.9013 18.2035 10.1638 18.2035C9.08641 18.2039 8.01954 17.9919 7.02411 17.5798C6.02869 17.1676 5.12423 16.5634 4.36242 15.8016C3.6006 15.0398 2.99636 14.1353 2.58422 13.1399C2.17208 12.1445 1.96012 11.0776 1.96045 10.0002C1.96012 8.92284 2.17208 7.85596 2.58422 6.86054C2.99636 5.86512 3.6006 4.96066 4.36242 4.19884C5.12423 3.43703 6.02869 2.83279 7.02411 2.42065C8.01954 2.00851 9.08641 1.79655 10.1638 1.79688C12.3788 1.79688 14.2296 2.61188 15.6496 3.93521L13.3371 6.24771V6.24188C12.4763 5.42188 11.3838 5.00104 10.1638 5.00104C7.45712 5.00104 5.25712 7.28771 5.25712 9.99521C5.25712 12.7019 7.45712 14.9935 10.1638 14.9935C12.6196 14.9935 14.2913 13.5894 14.6346 11.661H10.1638V8.46188H17.8805H17.8796Z" fill="white"/>
</g>
</svg>
