<svg width="18" height="20" viewBox="0 0 18 20" fill="none" xmlns="http://www.w3.org/2000/svg">
<g id="fa-brands:tiktok" clip-path="url(#clip0_601_180)">
<path id="Vector" d="M17.5 8.19961C15.7803 8.20372 14.1027 7.6674 12.7043 6.66641V13.6477C12.7038 14.9407 12.3086 16.2027 11.5715 17.265C10.8344 18.3274 9.79055 19.1393 8.57952 19.5924C7.36848 20.0455 6.048 20.118 4.79463 19.8003C3.54126 19.4826 2.41475 18.7899 1.56572 17.8147C0.716697 16.8395 0.18563 15.6283 0.0435316 14.3431C-0.0985665 13.058 0.155077 11.76 0.770547 10.6229C1.38602 9.48578 2.33398 8.56366 3.48767 7.97983C4.64136 7.39601 5.9458 7.17832 7.22656 7.35586V10.8672C6.64048 10.6828 6.01114 10.6884 5.42841 10.8831C4.84567 11.0777 4.33935 11.4515 3.98175 11.9511C3.62414 12.4507 3.43353 13.0505 3.43715 13.6649C3.44077 14.2793 3.63843 14.8768 4.00189 15.3721C4.36536 15.8675 4.87605 16.2353 5.46104 16.4231C6.04602 16.6109 6.67538 16.609 7.25925 16.4178C7.84311 16.2265 8.35162 15.8557 8.71215 15.3582C9.07268 14.8607 9.2668 14.262 9.26679 13.6477V0H12.7043C12.7019 0.290289 12.7262 0.580182 12.7769 0.866016C12.8964 1.50409 13.1448 2.1111 13.5068 2.6499C13.8689 3.1887 14.3371 3.64796 14.8828 3.99961C15.6591 4.51293 16.5693 4.78652 17.5 4.78633V8.19961Z" fill="white"/>
</g>
<defs>
<clipPath id="clip0_601_180">
<rect width="17.5" height="20" fill="white"/>
</clipPath>
</defs>
</svg>
